<svg xmlns="http://www.w3.org/2000/svg" viewBox="0 0 320 320" fill="none">
  <defs>
    <linearGradient id="cRing" x1="0" y1="0" x2="1" y2="1">
      <stop offset="0" stop-color="#C8102E"/>
      <stop offset="1" stop-color="#7D0A0A"/>
    </linearGradient>
    <linearGradient id="cLeaf" x1="0" y1="0" x2="1" y2="1">
      <stop offset="0" stop-color="#2BAA2B"/>
      <stop offset="1" stop-color="#1D6F1D"/>
    </linearGradient>
  </defs>
  <rect x="12" y="12" width="296" height="296" rx="48" fill="#FFF8F0"/>
  <path d="M160 54c53.019 0 96 42.981 96 96s-42.981 96-96 96-96-42.981-96-96 42.981-96 96-96zm0 26c-38.66 0-70 31.34-70 70s31.34 70 70 70 70-31.34 70-70-31.34-70-70-70z" fill="url(#cRing)"/>
  <path d="M91 198c15 12 37 17 66 17 29 0 51-5 66-17l14 18c-19 16-46 25-80 25-34 0-61-9-80-25l14-18z" fill="#7A4F2A"/>
  <path d="M112 106c11 0 20 9 20 20v24c0 11-9 20-20 20s-20-9-20-20v-24c0-11 9-20 20-20z" fill="#C8102E"/>
  <path d="M208 106c11 0 20 9 20 20v24c0 11-9 20-20 20s-20-9-20-20v-24c0-11 9-20 20-20z" fill="#C8102E"/>
  <path d="M170 116c16-17 37-27 61-29-2 24-13 45-32 61-19 16-40 24-63 24 2-23 14-41 34-56z" fill="url(#cLeaf)"/>
</svg>
